<svg width="572" height="572" viewBox="0 0 572 572" fill="none" xmlns="http://www.w3.org/2000/svg">
<g clip-path="url(#clip0_138_2)">
<path d="M452.752 277.216C459.419 281.065 459.419 290.687 452.752 294.536L74.9381 512.667C68.2714 516.516 59.9381 511.705 59.9381 504.007L59.9381 67.745C59.9381 60.047 68.2715 55.2357 74.9381 59.0847L452.752 277.216Z" fill="url(#paint0_linear_138_2)"/>
<path d="M118.259 294.536C111.592 290.687 111.592 281.065 118.259 277.216L496.073 59.0849C502.74 55.2359 511.073 60.0471 511.073 67.7451L511.073 504.007C511.073 511.705 502.74 516.516 496.073 512.667L118.259 294.536Z" fill="url(#paint1_linear_138_2)"/>
<path d="M452.751 277.216C459.418 281.065 459.418 290.688 452.751 294.537L285.504 391.096L118.258 294.537C111.592 290.688 111.592 281.065 118.258 277.216L285.504 180.656L452.751 277.216Z" fill="#BD38B4"/>
</g>
<defs>
<linearGradient id="paint0_linear_138_2" x1="88.3208" y1="285.876" x2="384.098" y2="285.876" gradientUnits="userSpaceOnUse">
<stop stop-color="#F04B23"/>
<stop offset="1" stop-color="#BD38B4"/>
</linearGradient>
<linearGradient id="paint1_linear_138_2" x1="510.077" y1="285.876" x2="233.329" y2="285.876" gradientUnits="userSpaceOnUse">
<stop stop-color="#1A99C3"/>
<stop offset="1" stop-color="#BD38B4"/>
</linearGradient>
<clipPath id="clip0_138_2">
<rect width="572" height="572" fill="white"/>
</clipPath>
</defs>
</svg>
